<?xml version="1.0" encoding="UTF-8" standalone="no"?>
<!-- Created with Inkscape (http://www.inkscape.org/) -->
<svg xmlns:dc="http://purl.org/dc/elements/1.1/" xmlns:cc="http://web.resource.org/cc/" xmlns:rdf="http://www.w3.org/1999/02/22-rdf-syntax-ns#" xmlns:svg="http://www.w3.org/2000/svg" xmlns="http://www.w3.org/2000/svg" xmlns:xlink="http://www.w3.org/1999/xlink" xmlns:sodipodi="http://inkscape.sourceforge.net/DTD/sodipodi-0.dtd" xmlns:inkscape="http://www.inkscape.org/namespaces/inkscape" sodipodi:docname="Metalarchives-Metallum.svg" sodipodi:docbase="E:\SVG\Wiki" height="600.00000px" width="600.00000px" inkscape:version="0.40+cvs" sodipodi:version="0.32" id="svg2">
  <metadata id="metadata7">
    <rdf:RDF id="RDF9">
      <cc:Work id="Work11" rdf:about="">
        <dc:format id="format13">image/svg+xml</dc:format>
        <dc:type rdf:resource="http://purl.org/dc/dcmitype/StillImage" id="type15"/>
      </cc:Work>
    </rdf:RDF>
  </metadata>
  <defs id="defs5">
    <linearGradient id="linearGradient3580">
      <stop id="stop3582" offset="0.00000000" style="stop-color:#640000;stop-opacity:1.0000000;"/>
      <stop id="stop3584" offset="1.0000000" style="stop-color:#320000;stop-opacity:1.0000000;"/>
    </linearGradient>
    <linearGradient gradientUnits="userSpaceOnUse" y2="473.49522" x2="0.93272125" y1="473.49522" x1="-599.06725" gradientTransform="matrix(1.000004,0.000000,0.000000,0.999996,-372.1060,-456.4112)" id="linearGradient3586" xlink:href="#linearGradient3580" inkscape:collect="always"/>
    <linearGradient y2="473.49522" x2="0.93272125" y1="473.49522" x1="-599.06725" gradientTransform="matrix(1.000004,0.000000,0.000000,0.999996,-372.1060,-456.4112)" gradientUnits="userSpaceOnUse" id="linearGradient3593" xlink:href="#linearGradient3580" inkscape:collect="always"/>
    <linearGradient inkscape:collect="always" xlink:href="#linearGradient3580" id="linearGradient2065" gradientUnits="userSpaceOnUse" gradientTransform="matrix(1.000004,0.000000,0.000000,0.999996,599.0698,-173.4919)" x1="-599.06725" y1="473.49522" x2="0.93272125" y2="473.49522"/>
  </defs>
  <sodipodi:namedview inkscape:guide-bbox="true" showguides="true" inkscape:current-layer="svg2" inkscape:window-y="-4" inkscape:window-x="-4" inkscape:cy="299.99870" inkscape:cx="300.00130" inkscape:zoom="0.95167078" inkscape:window-height="749" inkscape:window-width="1024" inkscape:pageshadow="2" inkscape:pageopacity="0.0" borderopacity="1.0" bordercolor="#666666" pagecolor="#ffffff" id="base"/>
  <rect y="0.23851387" x="0.23598066" height="599.52551" width="599.53064" id="rect1304" style="fill:url(#linearGradient2065);fill-opacity:1.0000000;fill-rule:evenodd;stroke:#00b4ff;stroke-width:0.47189578;stroke-miterlimit:4.0000000;stroke-dashoffset:0.00000000;stroke-opacity:1.0000000"/>
  <path style="font-size:603.88202;font-style:normal;font-variant:normal;font-weight:normal;font-stretch:normal;fill:#ffffff;fill-opacity:0.78431374;stroke:#000000;stroke-width:6.1079650;stroke-linecap:butt;stroke-linejoin:miter;stroke-miterlimit:4.0000000;stroke-opacity:0.50196081;font-family:Palatino Linotype;text-anchor:start;writing-mode:lr-tb" d="M 525.69217,45.863995 L 527.90724,48.563117 L 527.90724,65.095234 L 525.93829,67.456965 C 507.88913,68.132199 496.64972,69.369295 492.22001,71.168257 C 487.95353,72.968119 484.91807,76.004628 483.11362,80.277791 C 481.30833,84.326910 480.24182,92.424266 479.91408,104.56988 C 479.74958,116.71633 479.33938,151.01763 478.68348,207.47388 L 478.68348,363.01074 C 478.68307,385.50356 478.92918,410.92025 479.42184,439.26092 C 479.91366,467.60174 480.89813,484.13385 482.37526,488.85727 C 484.01564,493.35583 486.88702,496.72973 490.98942,498.97898 C 495.09097,501.00333 506.74058,502.35290 525.93829,503.02766 L 527.90724,505.38939 L 527.90724,521.92151 L 525.69217,524.62062 C 498.94682,522.59629 475.64760,521.58412 455.79443,521.58412 C 442.33956,521.58412 419.45054,522.59629 387.12730,524.62062 L 384.91222,521.92151 L 384.91222,505.72678 L 386.88117,503.02766 C 404.92954,502.35290 416.08692,501.11580 420.35333,499.31636 C 424.78311,497.51698 427.90061,494.59293 429.70585,490.54422 C 431.51034,486.27065 432.57686,477.94837 432.90539,465.57735 C 433.23317,453.20645 433.64337,419.01761 434.13598,363.01074 L 434.13598,115.36637 L 349.22500,358.96206 C 327.89444,419.91731 309.27148,477.27359 293.35604,531.03105 L 283.75741,531.03105 C 274.56876,502.01551 267.02112,478.84807 261.11448,461.52867 L 143.46970,126.50024 L 143.46970,362.33596 C 143.46962,384.37893 143.63370,409.79562 143.96194,438.58614 C 144.45409,467.15189 145.52061,483.68399 147.16148,488.18249 C 148.80219,492.68105 151.67357,496.05495 155.77564,498.30419 C 159.87753,500.55348 171.52713,501.90305 190.72450,502.35287 L 192.69346,505.05200 L 192.69346,521.24672 L 190.47839,524.28324 L 174.72679,523.27107 C 158.48285,522.14644 144.53613,521.58412 132.88659,521.58412 C 127.63600,521.58412 108.02856,522.48382 74.064205,524.28324 L 72.095255,521.58412 L 72.095255,505.38939 L 74.064205,502.35287 C 92.112890,501.90305 103.27026,500.77841 107.53636,498.97898 C 111.80237,497.17958 114.83783,494.14308 116.64275,489.86945 C 118.61165,485.59587 119.67816,477.61097 119.84229,465.91474 C 120.17040,454.21862 120.58060,419.69239 121.07290,362.33596 L 121.07290,207.81127 C 121.07284,187.34327 120.82671,162.48888 120.33453,133.24804 C 120.00632,103.78306 119.02185,86.801102 117.38111,82.302133 C 115.90434,77.579114 113.11500,74.092752 109.01307,71.843037 C 104.91105,69.594222 93.261442,68.244663 74.064205,67.794355 L 72.095255,65.095234 L 72.095255,48.900506 L 74.310324,45.863995 C 85.631761,46.989103 100.89111,47.551420 120.08842,47.550946 C 138.13705,47.551420 153.88864,46.989103 167.34322,45.863995 C 181.12576,89.500221 194.33412,128.97483 206.96835,164.28794 L 300.24736,426.77749 L 384.41999,186.21829 C 407.22665,121.21486 422.56804,74.430142 430.44420,45.863995 C 446.19542,46.989103 461.70088,47.551420 476.96065,47.550946 C 490.74287,47.551420 506.98669,46.989103 525.69217,45.863995" id="text1298"/>
</svg>