<?xml version="1.0" encoding="UTF-8" standalone="no"?>
<svg height="1024" version="1.1" viewBox="0 0 1024 1024" width="1024" xmlns="http://www.w3.org/2000/svg" xmlns:svg="http://www.w3.org/2000/svg">
  <path d="M 0,860.16 C 0,950.64 73.36,1024 163.84,1024 H 860.16 C 950.64,1024 1024,950.64 1024,860.16 V 163.84 C 1024,73.36 950.64,0 860.16,0 H 163.84 C 73.36,0 0,73.36 0,163.84 v 696.32" fill="#fffc00" fill-rule="evenodd"/>
  <path d="M192,512C192,335.29,335.29,192,512,192L512,192C688.71,192,832,335.29,832,512L832,512C832,688.71,688.71,832,512,832L512,832C335.29,832,192,688.71,192,512L192,512M0,860.16C0,950.64,73.36,1024,163.84,1024L860.16,1024C950.64,1024,1024,950.64,1024,860.16L1024,163.84C1024,73.36,950.64,0,860.16,0L163.84,0C73.36,0,0,73.36,0,163.84L0,860.16" fill="#000000"/>
  <path d="M32,163.84C32,91.03,91.03,32,163.84,32L860.16,32C932.97,32,992,91.03,992,163.84L992,860.16C992,932.97,932.97,992,860.16,992L163.84,992C91.03,992,32,932.97,32,860.16L32,163.84M170.11,56.42A16,16,0,0,0,170.11,88.42A16,16,0,0,0,170.11,56.42M218.95,56.42A16,16,0,0,0,218.95,88.42A16,16,0,0,0,218.95,56.42M365.47,56.42A16,16,0,0,0,365.47,88.42A16,16,0,0,0,365.47,56.42M512,56.42A16,16,0,0,0,512,88.42A16,16,0,0,0,512,56.42M560.84,56.42A16,16,0,0,0,560.84,88.42A16,16,0,0,0,560.84,56.42M609.68,56.42A16,16,0,0,0,609.68,88.42A16,16,0,0,0,609.68,56.42M658.53,56.42A16,16,0,0,0,658.53,88.42A16,16,0,0,0,658.53,56.42M707.37,56.42A16,16,0,0,0,707.37,88.42A16,16,0,0,0,707.37,56.42M756.21,56.42A16,16,0,0,0,756.21,88.42A16,16,0,0,0,756.21,56.42M805.05,56.42A16,16,0,0,0,805.05,88.42A16,16,0,0,0,805.05,56.42M121.26,105.26A16,16,0,0,0,121.26,137.26A16,16,0,0,0,121.26,105.26M170.11,105.26A16,16,0,0,0,170.11,137.26A16,16,0,0,0,170.11,105.26M218.95,105.26A16,16,0,0,0,218.95,137.26A16,16,0,0,0,218.95,105.26M267.79,105.26A16,16,0,0,0,267.79,137.26A16,16,0,0,0,267.79,105.26M316.63,105.26A16,16,0,0,0,316.63,137.26A16,16,0,0,0,316.63,105.26M414.32,105.26A16,16,0,0,0,414.32,137.26A16,16,0,0,0,414.32,105.26M463.16,105.26A16,16,0,0,0,463.16,137.26A16,16,0,0,0,463.16,105.26M512,105.26A16,16,0,0,0,512,137.26A16,16,0,0,0,512,105.26M658.53,105.26A16,16,0,0,0,658.53,137.26A16,16,0,0,0,658.53,105.26M707.37,105.26A16,16,0,0,0,707.37,137.26A16,16,0,0,0,707.37,105.26M756.21,105.26A16,16,0,0,0,756.21,137.26A16,16,0,0,0,756.21,105.26M805.05,105.26A16,16,0,0,0,805.05,137.26A16,16,0,0,0,805.05,105.26M170.11,154.11A16,16,0,0,0,170.11,186.11A16,16,0,0,0,170.11,154.11M218.95,154.11A16,16,0,0,0,218.95,186.11A16,16,0,0,0,218.95,154.11M316.63,154.11A16,16,0,0,0,316.63,186.11A16,16,0,0,0,316.63,154.11M365.47,154.11A16,16,0,0,0,365.47,186.11A16,16,0,0,0,365.47,154.11M463.16,154.11A16,16,0,0,0,463.16,186.11A16,16,0,0,0,463.16,154.11M560.84,154.11A16,16,0,0,0,560.84,186.11A16,16,0,0,0,560.84,154.11M609.68,154.11A16,16,0,0,0,609.68,186.11A16,16,0,0,0,609.68,154.11M658.53,154.11A16,16,0,0,0,658.53,186.11A16,16,0,0,0,658.53,154.11M853.89,154.11A16,16,0,0,0,853.89,186.11A16,16,0,0,0,853.89,154.11M902.74,154.11A16,16,0,0,0,902.74,186.11A16,16,0,0,0,902.74,154.11M72.42,202.95A16,16,0,0,0,72.42,234.95A16,16,0,0,0,72.42,202.95M121.26,202.95A16,16,0,0,0,121.26,234.95A16,16,0,0,0,121.26,202.95M170.11,202.95A16,16,0,0,0,170.11,234.95A16,16,0,0,0,170.11,202.95M267.79,202.95A16,16,0,0,0,267.79,234.95A16,16,0,0,0,267.79,202.95M316.63,202.95A16,16,0,0,0,316.63,234.95A16,16,0,0,0,316.63,202.95M756.21,202.95A16,16,0,0,0,756.21,234.95A16,16,0,0,0,756.21,202.95M805.05,202.95A16,16,0,0,0,805.05,234.95A16,16,0,0,0,805.05,202.95M72.42,251.79A16,16,0,0,0,72.42,283.79A16,16,0,0,0,72.42,251.79M218.95,251.79A16,16,0,0,0,218.95,283.79A16,16,0,0,0,218.95,251.79M805.05,251.79A16,16,0,0,0,805.05,283.79A16,16,0,0,0,805.05,251.79M853.89,251.79A16,16,0,0,0,853.89,283.79A16,16,0,0,0,853.89,251.79M902.74,251.79A16,16,0,0,0,902.74,283.79A16,16,0,0,0,902.74,251.79M951.58,251.79A16,16,0,0,0,951.58,283.79A16,16,0,0,0,951.58,251.79M72.42,300.63A16,16,0,0,0,72.42,332.63A16,16,0,0,0,72.42,300.63M121.26,300.63A16,16,0,0,0,121.26,332.63A16,16,0,0,0,121.26,300.63M170.11,300.63A16,16,0,0,0,170.11,332.63A16,16,0,0,0,170.11,300.63M902.74,300.63A16,16,0,0,0,902.74,332.63A16,16,0,0,0,902.74,300.63M170.11,349.47A16,16,0,0,0,170.11,381.47A16,16,0,0,0,170.11,349.47M951.58,349.47A16,16,0,0,0,951.58,381.47A16,16,0,0,0,951.58,349.47M170.11,398.32A16,16,0,0,0,170.11,430.32A16,16,0,0,0,170.11,398.32M853.89,398.32A16,16,0,0,0,853.89,430.32A16,16,0,0,0,853.89,398.32M951.58,398.32A16,16,0,0,0,951.58,430.32A16,16,0,0,0,951.58,398.32M72.42,447.16A16,16,0,0,0,72.42,479.16A16,16,0,0,0,72.42,447.16M170.11,447.16A16,16,0,0,0,170.11,479.16A16,16,0,0,0,170.11,447.16M72.42,496A16,16,0,0,0,72.42,528A16,16,0,0,0,72.42,496M853.89,496A16,16,0,0,0,853.89,528A16,16,0,0,0,853.89,496M902.74,496A16,16,0,0,0,902.74,528A16,16,0,0,0,902.74,496M951.58,496A16,16,0,0,0,951.58,528A16,16,0,0,0,951.58,496M72.42,544.84A16,16,0,0,0,72.42,576.84A16,16,0,0,0,72.42,544.84M853.89,544.84A16,16,0,0,0,853.89,576.84A16,16,0,0,0,853.89,544.84M951.58,544.84A16,16,0,0,0,951.58,576.84A16,16,0,0,0,951.58,544.84M121.26,593.68A16,16,0,0,0,121.26,625.68A16,16,0,0,0,121.26,593.68M72.42,642.53A16,16,0,0,0,72.42,674.53A16,16,0,0,0,72.42,642.53M121.26,642.53A16,16,0,0,0,121.26,674.53A16,16,0,0,0,121.26,642.53M170.11,642.53A16,16,0,0,0,170.11,674.53A16,16,0,0,0,170.11,642.53M853.89,642.53A16,16,0,0,0,853.89,674.53A16,16,0,0,0,853.89,642.53M951.58,642.53A16,16,0,0,0,951.58,674.53A16,16,0,0,0,951.58,642.53M121.26,691.37A16,16,0,0,0,121.26,723.37A16,16,0,0,0,121.26,691.37M170.11,691.37A16,16,0,0,0,170.11,723.37A16,16,0,0,0,170.11,691.37M853.89,691.37A16,16,0,0,0,853.89,723.37A16,16,0,0,0,853.89,691.37M902.74,691.37A16,16,0,0,0,902.74,723.37A16,16,0,0,0,902.74,691.37M218.95,740.21A16,16,0,0,0,218.95,772.21A16,16,0,0,0,218.95,740.21M267.79,740.21A16,16,0,0,0,267.79,772.21A16,16,0,0,0,267.79,740.21M756.21,740.21A16,16,0,0,0,756.21,772.21A16,16,0,0,0,756.21,740.21M951.58,740.21A16,16,0,0,0,951.58,772.21A16,16,0,0,0,951.58,740.21M72.42,789.05A16,16,0,0,0,72.42,821.05A16,16,0,0,0,72.42,789.05M170.11,789.05A16,16,0,0,0,170.11,821.05A16,16,0,0,0,170.11,789.05M316.63,789.05A16,16,0,0,0,316.63,821.05A16,16,0,0,0,316.63,789.05M707.37,789.05A16,16,0,0,0,707.37,821.05A16,16,0,0,0,707.37,789.05M853.89,789.05A16,16,0,0,0,853.89,821.05A16,16,0,0,0,853.89,789.05M902.74,789.05A16,16,0,0,0,902.74,821.05A16,16,0,0,0,902.74,789.05M170.11,837.89A16,16,0,0,0,170.11,869.89A16,16,0,0,0,170.11,837.89M267.79,837.89A16,16,0,0,0,267.79,869.89A16,16,0,0,0,267.79,837.89M463.16,837.89A16,16,0,0,0,463.16,869.89A16,16,0,0,0,463.16,837.89M560.84,837.89A16,16,0,0,0,560.84,869.89A16,16,0,0,0,560.84,837.89M756.21,837.89A16,16,0,0,0,756.21,869.89A16,16,0,0,0,756.21,837.89M805.05,837.89A16,16,0,0,0,805.05,869.89A16,16,0,0,0,805.05,837.89M951.58,837.89A16,16,0,0,0,951.58,869.89A16,16,0,0,0,951.58,837.89M121.26,886.74A16,16,0,0,0,121.26,918.74A16,16,0,0,0,121.26,886.74M267.79,886.74A16,16,0,0,0,267.79,918.74A16,16,0,0,0,267.79,886.74M365.47,886.74A16,16,0,0,0,365.47,918.74A16,16,0,0,0,365.47,886.74M609.68,886.74A16,16,0,0,0,609.68,918.74A16,16,0,0,0,609.68,886.74M707.37,886.74A16,16,0,0,0,707.37,918.74A16,16,0,0,0,707.37,886.74M756.21,886.74A16,16,0,0,0,756.21,918.74A16,16,0,0,0,756.21,886.74M218.95,935.58A16,16,0,0,0,218.95,967.58A16,16,0,0,0,218.95,935.58M463.16,935.58A16,16,0,0,0,463.16,967.58A16,16,0,0,0,463.16,935.58M512,935.58A16,16,0,0,0,512,967.58A16,16,0,0,0,512,935.58M609.68,935.58A16,16,0,0,0,609.68,967.58A16,16,0,0,0,609.68,935.58M658.53,935.58A16,16,0,0,0,658.53,967.58A16,16,0,0,0,658.53,935.58M756.21,935.58A16,16,0,0,0,756.21,967.58A16,16,0,0,0,756.21,935.58M853.89,935.58A16,16,0,0,0,853.89,967.58A16,16,0,0,0,853.89,935.58M198.4,512C198.4,685.18,338.82,825.6,512,825.6L512,825.6C685.18,825.6,825.6,685.18,825.6,512L825.6,512C825.6,338.82,685.18,198.4,512,198.4L512,198.4C338.82,198.4,198.4,338.82,198.4,512L198.4,512" fill="#FFFC00"/>
</svg>